<?xml version="1.0" encoding="UTF-8"?>
<?xml-stylesheet href="https://cdnjs.cloudflare.com/ajax/libs/font-awesome/6.6.0/css/all.min.css" type="text/css"?>
<svg xmlns="http://www.w3.org/2000/svg" xmlns:xlink="http://www.w3.org/1999/xlink" width="100%" height="100%" stroke-linecap="round" viewBox="0 0 924.5 723" style="max-width: 100%;"><g><path d="M708.094 649.849 C708.094 649.849, 708.094 649.849, 708.094 649.849 M708.094 649.849 C708.094 649.849, 708.094 649.849, 708.094 649.849 M708.126 659.283 C708.886 656.032, 710.033 654.433, 715.505 647.386 M708.126 659.283 C710.167 655.78, 712.728 652.313, 715.505 647.386 M708.158 668.717 C711.451 659.18, 719.65 654.335, 721.863 646.622 M708.158 668.717 C712.336 659.872, 718.276 653.025, 721.863 646.622 M708.19 678.151 C714.929 664.866, 723.386 655.195, 727.693 646.708 M708.19 678.151 C714.697 668.256, 721.232 658.234, 727.693 646.708 M708.222 687.585 C716.554 675.64, 723.002 665.178, 733.523 646.795 M708.222 687.585 C714.352 678.836, 720.954 669.283, 733.523 646.795 M708.254 697.019 C718.342 681.055, 728.368 667.583, 739.354 646.881 M708.254 697.019 C721.024 676.476, 733.597 656.593, 739.354 646.881 M707.759 707.303 C719.327 689.768, 733.024 668.256, 745.184 646.967 M707.759 707.303 C716.667 692.574, 726.964 675.955, 745.184 646.967 M710.427 712.487 C726.114 687.833, 740.854 660.851, 751.014 647.053 M710.427 712.487 C719.101 697.005, 729.889 681.728, 751.014 647.053 M716.257 712.574 C723.783 696.277, 735.255 682.866, 756.845 647.139 M716.257 712.574 C726.614 695.778, 737.756 679.633, 756.845 647.139 M722.615 711.81 C736.383 688.947, 753.28 661.988, 762.675 647.225 M722.615 711.81 C735.417 691.125, 748.681 669.467, 762.675 647.225 M728.445 711.896 C740.181 691.84, 752.403 673.313, 768.505 647.311 M728.445 711.896 C741.06 691.095, 753.321 670.358, 768.505 647.311 M734.275 711.982 C750.519 686.113, 766.097 663.515, 774.335 647.397 M734.275 711.982 C749.574 688.576, 763.657 665.085, 774.335 647.397 M740.106 712.068 C754.214 688.804, 769.973 664.387, 780.166 647.484 M740.106 712.068 C754.708 690.012, 767.386 669.515, 780.166 647.484 M745.936 712.154 C758.745 694.375, 768.661 673.374, 785.996 647.57 M745.936 712.154 C759.057 690.069, 771.933 669.594, 785.996 647.57 M751.766 712.241 C761.435 698.309, 769.458 681.442, 792.354 646.806 M751.766 712.241 C760.279 698.693, 768.706 686.05, 792.354 646.806 M757.597 712.327 C767.783 693.981, 780.322 676.699, 798.184 646.892 M757.597 712.327 C767.1 695.621, 778.716 679.973, 798.184 646.892 M763.427 712.413 C773.295 696.956, 784.133 680.759, 804.014 646.978 M763.427 712.413 C776.712 691.665, 789.307 669.766, 804.014 646.978 M769.257 712.499 C780.513 693.504, 795.074 670.958, 809.844 647.065 M769.257 712.499 C784.843 687.085, 801.768 662.14, 809.844 647.065 M775.088 712.585 C792.081 686.393, 805.714 662.062, 815.675 647.151 M775.088 712.585 C790.333 688.468, 804.816 664.629, 815.675 647.151 M780.918 712.671 C796.741 687.527, 812.451 661.661, 821.505 647.237 M780.918 712.671 C791.614 694.754, 802.044 678.388, 821.505 647.237 M786.748 712.757 C804.147 687.18, 816.999 665.329, 827.335 647.323 M786.748 712.757 C794.602 699.91, 803.269 684.172, 827.335 647.323 M793.106 711.994 C808.324 688.679, 823.528 663.779, 833.166 647.409 M793.106 711.994 C805.67 692.527, 815.515 675.344, 833.166 647.409 M798.936 712.08 C812.124 696.297, 822.219 678.238, 838.996 647.495 M798.936 712.08 C813.453 686.55, 829.853 660.342, 838.996 647.495 M804.766 712.166 C816.985 693.97, 830.624 673.661, 844.826 647.581 M804.766 712.166 C815.189 692.691, 828.541 672.914, 844.826 647.581 M810.597 712.252 C822.222 691.974, 836.975 668.287, 850.657 647.667 M810.597 712.252 C823.246 692.757, 836.304 673.502, 850.657 647.667 M816.427 712.338 C832.147 689.842, 843.578 666.164, 856.487 647.754 M816.427 712.338 C825.493 695.768, 836.286 681.118, 856.487 647.754 M822.257 712.424 C831.455 696.555, 841.172 685.021, 858.628 653.788 M822.257 712.424 C831.973 697.3, 839.685 683.306, 858.628 653.788 M828.087 712.511 C840.256 697.615, 849.55 681.705, 858.133 664.072 M828.087 712.511 C837.027 700.503, 845.342 686.503, 858.133 664.072 M833.918 712.597 C842.502 698.775, 850.602 685.12, 858.165 673.506 M833.918 712.597 C840.072 702.453, 847.746 691.462, 858.165 673.506 M839.748 712.683 C844.96 702.484, 849.858 696.234, 858.197 682.94 M839.748 712.683 C846.352 702.659, 851.666 693.13, 858.197 682.94 M845.578 712.769 C848.552 703.637, 856.777 698.62, 858.229 692.374 M845.578 712.769 C850.401 706.847, 854.319 699.71, 858.229 692.374 M851.409 712.855 C853.989 710.143, 856.52 704.145, 858.261 701.808 M851.409 712.855 C854.558 708.519, 856.557 705.21, 858.261 701.808" stroke="rgb(31, 32, 32)" stroke-width="2.581" fill="none"></path><path d="M711 647 C747.269 645.259, 785.255 647.731, 855 647 M855 647 C858.144 648.759, 856.886 648.015, 858 650 M858 650 C859.18 672.325, 856.352 695.233, 858 709 M858 709 C858.65 711.957, 854.379 710.604, 855 712 M855 712 C815.561 710.435, 776.76 713.83, 711 712 M711 712 C708.616 710.326, 708.623 712.223, 708 709 M708 709 C705.989 691.895, 706.591 671.327, 708 650 M708 650 C706.358 648.032, 710.929 648.4, 711 647 M711 647 C711 647, 711 647, 711 647" stroke="rgb(204, 204, 204)" stroke-width="1" fill="none"></path></g><g class="text-container" transform="matrix(1 0 0 1 50 10)"><text style="text-anchor: middle; font-size: 16px; font-weight: 400;font-style: normal;font-weight: 400;font-size: 16px;font-family: Comic Sans MS, cursive;" class="actor actor-box" alignment-baseline="central" dominant-baseline="central" y="669.5" x="733" stroke="rgb(204, 204, 204)" stroke-width="1px" fill="rgb(31, 32, 32)" text-anchor="middle"><tspan dy="0" x="733" stroke="none" stroke-width="1px" fill="rgb(211, 211, 211)" text-anchor="middle" dominant-baseline="central">HR Officer</tspan></text></g><g><path d="M366.237 649.725 C366.237 649.725, 366.237 649.725, 366.237 649.725 M366.237 649.725 C366.237 649.725, 366.237 649.725, 366.237 649.725 M365.898 654.713 C367.782 652.357, 370.441 649.367, 372.427 647.139 M365.898 654.713 C368.27 652.651, 370.611 649.438, 372.427 647.139 M366.212 658.944 C367.005 655.95, 371.707 655.132, 376.005 647.583 M366.212 658.944 C368.641 655.482, 371.557 652.688, 376.005 647.583 M365.872 663.933 C368.197 660.148, 373.443 655.38, 380.236 647.269 M365.872 663.933 C368.978 660.86, 372.211 656.242, 380.236 647.269 M366.186 668.164 C370.051 660.994, 377.705 656.88, 383.815 647.713 M366.186 668.164 C372.169 661.045, 378.455 653.506, 383.815 647.713 M365.846 673.152 C371.955 666.219, 380.158 656.501, 388.046 647.399 M365.846 673.152 C371.064 666.734, 376.927 660.03, 388.046 647.399 M366.16 677.383 C375.317 668.721, 383.506 657.168, 391.624 647.843 M366.16 677.383 C374.431 668.244, 380.399 659.053, 391.624 647.843 M365.821 682.372 C377.507 669.147, 386.21 658.744, 395.855 647.53 M365.821 682.372 C374.886 671.527, 384.568 659.409, 395.855 647.53 M366.134 686.603 C376.446 671.078, 390.266 660.38, 400.086 647.216 M366.134 686.603 C379.345 670.876, 392.413 656.257, 400.086 647.216 M365.795 691.591 C373.509 681.826, 382.573 671.817, 403.664 647.66 M365.795 691.591 C376.081 681.021, 385.688 668.848, 403.664 647.66 M366.108 695.822 C378.375 681.689, 391.32 666.811, 407.895 647.346 M366.108 695.822 C378.496 681.202, 391.566 666.753, 407.895 647.346 M365.769 700.811 C380.479 687.129, 390.743 668.623, 411.473 647.79 M365.769 700.811 C374.29 689.572, 384.292 679.839, 411.473 647.79 M366.083 705.042 C381.25 689.571, 394.75 671.27, 415.704 647.477 M366.083 705.042 C384.891 684.01, 401.441 662.543, 415.704 647.477 M366.396 709.273 C376.85 697.439, 390.674 681.724, 419.282 647.921 M366.396 709.273 C379.909 695.206, 392.23 680.311, 419.282 647.921 M368.015 711.989 C381.469 694.273, 395.69 679.139, 423.513 647.607 M368.015 711.989 C379.86 697.302, 392.806 684.308, 423.513 647.607 M372.247 711.675 C390.613 689.215, 408.714 668.983, 427.744 647.294 M372.247 711.675 C387.784 693.339, 402.137 675.414, 427.744 647.294 M375.825 712.119 C389.036 695.572, 401.199 679.467, 431.322 647.737 M375.825 712.119 C394.617 690.182, 412.408 669.793, 431.322 647.737 M380.056 711.806 C399.258 689.596, 417.692 668.135, 435.553 647.424 M380.056 711.806 C393.824 695.095, 406.901 680.3, 435.553 647.424 M383.634 712.249 C395.118 695.207, 408.39 679.699, 439.132 647.868 M383.634 712.249 C405.345 686.11, 425.676 661.274, 439.132 647.868 M387.865 711.936 C402.321 695.937, 418.326 676.466, 443.363 647.554 M387.865 711.936 C400.854 698.299, 411.671 684.402, 443.363 647.554 M392.096 711.622 C407.741 690.539, 424.668 672.57, 447.594 647.241 M392.096 711.622 C405.223 696.969, 417.719 681.93, 447.594 647.241 M395.674 712.066 C411.148 691.483, 429.309 672.28, 451.172 647.685 M395.674 712.066 C417.424 687.515, 437.679 664.704, 451.172 647.685 M399.905 711.753 C417.472 688.521, 440.565 666.47, 455.403 647.371 M399.905 711.753 C422.451 686.409, 443.799 661.435, 455.403 647.371 M403.483 712.197 C423.396 687.193, 443.57 663.114, 458.981 647.815 M403.483 712.197 C414.635 699.046, 426.064 685.77, 458.981 647.815 M407.714 711.883 C420.127 696.816, 435.753 676.154, 463.212 647.501 M407.714 711.883 C428.646 687.937, 447.883 665.823, 463.212 647.501 M411.292 712.327 C424.556 697.87, 434.57 685.458, 466.79 647.945 M411.292 712.327 C423.909 697.014, 435.95 683.006, 466.79 647.945 M415.523 712.013 C426.914 700.368, 437.446 686.596, 471.021 647.632 M415.523 712.013 C437.65 688.152, 458.477 663.298, 471.021 647.632 M419.754 711.7 C431.097 696.123, 441.829 683.575, 475.252 647.318 M419.754 711.7 C437.745 692.384, 452.896 673.463, 475.252 647.318 M423.333 712.144 C438.958 690.133, 456.581 671.367, 478.83 647.762 M423.333 712.144 C444.003 686.76, 466.339 662.097, 478.83 647.762 M427.564 711.83 C442.301 693.559, 457.656 677.155, 483.061 647.448 M427.564 711.83 C444.217 693.44, 460.207 673.592, 483.061 647.448 M431.142 712.274 C444.616 696.511, 458.678 683.362, 486.639 647.892 M431.142 712.274 C452.013 687.014, 473.778 662.979, 486.639 647.892 M435.373 711.96 C451.414 692.425, 469.025 673.535, 490.87 647.579 M435.373 711.96 C446.01 698.285, 457.29 686.253, 490.87 647.579 M438.951 712.404 C455.422 696.035, 469.621 679.324, 494.449 648.023 M438.951 712.404 C458.286 688.845, 477.435 666.714, 494.449 648.023 M443.182 712.091 C461.933 689.134, 484.944 667.403, 498.68 647.709 M443.182 712.091 C462.185 689.777, 481.801 666.382, 498.68 647.709 M447.413 711.777 C469.868 686.507, 488.643 661.875, 502.911 647.396 M447.413 711.777 C463.274 694.153, 476.498 677.459, 502.911 647.396 M450.991 712.221 C466.452 693.016, 478.114 676.657, 506.489 647.839 M450.991 712.221 C471.905 686.793, 494.835 661.563, 506.489 647.839 M455.222 711.908 C473.573 694.906, 487.133 676.022, 510.72 647.526 M455.222 711.908 C475.628 688.602, 495.822 664.368, 510.72 647.526 M458.8 712.351 C479.599 689.779, 498.018 667.467, 514.298 647.97 M458.8 712.351 C478.702 689.238, 497.7 667.297, 514.298 647.97 M463.031 712.038 C476.655 697.366, 487.075 680.913, 516.57 649.929 M463.031 712.038 C478.851 693.15, 495.577 672.647, 516.57 649.929 M466.609 712.482 C484.253 691.956, 500.319 669.235, 516.231 654.917 M466.609 712.482 C485.351 692.603, 502.204 671.709, 516.231 654.917 M470.84 712.168 C481.033 702.667, 489.162 689.066, 516.544 659.148 M470.84 712.168 C479.013 700.448, 488.689 690.541, 516.544 659.148 M475.071 711.855 C487.426 696.872, 498.246 681.54, 516.205 664.137 M475.071 711.855 C487.707 696.149, 501.135 680.026, 516.205 664.137 M478.65 712.299 C493.703 695.644, 509.397 678.815, 516.519 668.368 M478.65 712.299 C490.224 699.078, 500.172 687.46, 516.519 668.368 M482.881 711.985 C494.821 695.917, 506.343 682.532, 516.179 673.356 M482.881 711.985 C494.744 698.873, 505.421 685.904, 516.179 673.356 M486.459 712.429 C493.062 703.021, 501.957 693.92, 515.84 678.344 M486.459 712.429 C495.676 702.219, 505.085 691.743, 515.84 678.344 M490.69 712.115 C496.834 704.291, 502.776 701.168, 516.153 682.576 M490.69 712.115 C497.91 704.314, 503.653 697.34, 516.153 682.576 M494.921 711.802 C503.451 703.234, 510.142 695.828, 515.814 687.564 M494.921 711.802 C500.945 706.245, 504.666 700.47, 515.814 687.564 M498.499 712.246 C503.873 706.56, 509.632 700.211, 516.128 691.795 M498.499 712.246 C504.529 706.079, 509.071 699.832, 516.128 691.795 M502.73 711.932 C504.485 710.062, 510.909 703.517, 515.788 696.783 M502.73 711.932 C505.385 708.103, 509.315 705.742, 515.788 696.783 M506.308 712.376 C509.965 708.926, 510.224 706.855, 516.102 701.015 M506.308 712.376 C508.685 710, 510.508 705.877, 516.102 701.015 M510.539 712.062 C511.643 710.199, 514.326 708.845, 515.762 706.003 M510.539 712.062 C512.175 710.208, 514.048 707.998, 515.762 706.003" stroke="rgb(31, 32, 32)" stroke-width="1.155" fill="none"></path><path d="M369 647 C403.238 644.751, 441.585 647.116, 513 647 M513 647 C514.391 647.486, 517.444 650.053, 516 650 M516 650 C514.979 670.979, 516.283 691.377, 516 709 M516 709 C516.021 711.031, 515.626 712.782, 513 712 M513 712 C461.305 710.641, 409.29 711.388, 369 712 M369 712 C368.162 713.474, 367.41 710.435, 366 709 M366 709 C366.844 688.394, 364.671 668.009, 366 650 M366 650 C366.123 649.89, 366.665 645.445, 369 647 M369 647 C369 647, 369 647, 369 647" stroke="rgb(204, 204, 204)" stroke-width="1" fill="none"></path></g><g class="text-container" transform="matrix(1 0 0 1 50 10)"><text style="text-anchor: middle; font-size: 16px; font-weight: 400;font-style: normal;font-weight: 400;font-size: 16px;font-family: Comic Sans MS, cursive;" class="actor actor-box" alignment-baseline="central" dominant-baseline="central" y="669.5" x="391" stroke="rgb(204, 204, 204)" stroke-width="1px" fill="rgb(31, 32, 32)" text-anchor="middle"><tspan dy="0" x="391" stroke="none" stroke-width="1px" fill="rgb(211, 211, 211)" text-anchor="middle" dominant-baseline="central">Forecaster</tspan></text></g><g><path d="M53.29 646.75 C53.29 646.75, 53.29 646.75, 53.29 646.75 M53.29 646.75 C53.29 646.75, 53.29 646.75, 53.29 646.75 M50.706 652.94 C52.302 651.208, 56.431 647.955, 57.521 647.062 M50.706 652.94 C53.655 651.047, 55.456 648.448, 57.521 647.062 M50.393 657.171 C54.263 653.546, 57.072 651.01, 62.51 646.722 M50.393 657.171 C54.01 654.037, 57.093 651.261, 62.51 646.722 M50.08 661.402 C56.112 659.449, 56.331 654.565, 66.741 647.035 M50.08 661.402 C56.18 655.548, 62.497 651.998, 66.741 647.035 M50.525 664.98 C56.086 660.181, 63.527 655.801, 70.972 647.348 M50.525 664.98 C57.37 658.674, 64.722 652.189, 70.972 647.348 M50.212 669.211 C56.878 661.644, 67.591 656.948, 75.96 647.008 M50.212 669.211 C57.676 662.271, 67.228 654.222, 75.96 647.008 M50.656 672.789 C59.748 664.941, 67.275 660.982, 80.192 647.32 M50.656 672.789 C56.293 667.798, 64.448 662.049, 80.192 647.32 M50.343 677.02 C62.486 668.606, 69.434 658.674, 85.18 646.98 M50.343 677.02 C57.474 670.13, 64.674 665.476, 85.18 646.98 M50.788 680.598 C58.136 674.608, 71.024 665.159, 89.411 647.293 M50.788 680.598 C64.653 668.636, 78.483 656.393, 89.411 647.293 M50.475 684.829 C65.332 672.59, 81.381 659.037, 94.399 646.953 M50.475 684.829 C62.865 674.1, 75.534 661.973, 94.399 646.953 M50.162 689.061 C64.436 678.429, 76.153 663.585, 98.631 647.266 M50.162 689.061 C68.936 673.984, 86.129 657.489, 98.631 647.266 M50.607 692.639 C63.616 680.165, 76.547 670.605, 103.619 646.925 M50.607 692.639 C60.829 684.064, 71.386 672.913, 103.619 646.925 M50.294 696.87 C65.094 686.621, 75.283 671.821, 107.85 647.238 M50.294 696.87 C62.235 685.732, 76.373 673.645, 107.85 647.238 M50.738 700.448 C66.205 689.055, 77.997 677.61, 112.839 646.898 M50.738 700.448 C71.138 683.409, 91.743 666.101, 112.839 646.898 M50.426 704.679 C66.966 690.838, 81.928 677.754, 117.07 647.211 M50.426 704.679 C65.634 691.582, 80.258 678.58, 117.07 647.211 M50.113 708.91 C65.724 694.046, 84.15 679.447, 122.058 646.87 M50.113 708.91 C69.202 692.213, 89.849 674.728, 122.058 646.87 M51.315 711.835 C69.213 694.335, 88.999 677.892, 126.289 647.183 M51.315 711.835 C80.527 686.304, 107.853 662.368, 126.289 647.183 M55.546 712.148 C83.251 685.036, 114.075 659.901, 131.278 646.843 M55.546 712.148 C78.811 691.388, 102.929 671.287, 131.278 646.843 M59.777 712.461 C78.898 694.042, 100.695 679.477, 135.509 647.156 M59.777 712.461 C75.471 697.101, 94.223 683.694, 135.509 647.156 M64.765 712.12 C85.052 694.249, 105.564 678.632, 139.74 647.469 M64.765 712.12 C88.297 691.502, 112.784 671.218, 139.74 647.469 M68.996 712.433 C84.262 699.506, 99.902 682.758, 144.728 647.128 M68.996 712.433 C88.196 695.599, 106.621 680.49, 144.728 647.128 M73.985 712.093 C92.794 694.906, 108.108 679.555, 148.959 647.441 M73.985 712.093 C100.218 687.563, 127.523 664.736, 148.959 647.441 M78.216 712.406 C104.89 689.24, 131.425 664.924, 153.948 647.101 M78.216 712.406 C96.513 697.096, 116.163 680.833, 153.948 647.101 M83.204 712.065 C102.303 691.237, 125.932 674.363, 158.179 647.414 M83.204 712.065 C101.435 696.101, 120.334 681.222, 158.179 647.414 M87.435 712.378 C109.098 695.769, 129.531 674.599, 163.167 647.074 M87.435 712.378 C106.707 697.491, 124.282 682.659, 163.167 647.074 M92.424 712.038 C110.11 694.205, 130.323 677.826, 167.398 647.386 M92.424 712.038 C113.51 694.59, 133.94 676.497, 167.398 647.386 M96.655 712.351 C119.799 691.091, 143.37 667.836, 172.387 647.046 M96.655 712.351 C122.186 690.753, 148.113 667.718, 172.387 647.046 M100.886 712.664 C125.054 687.567, 154.544 667.994, 176.618 647.359 M100.886 712.664 C123.944 693.427, 146.813 673.077, 176.618 647.359 M105.874 712.323 C129.575 691.779, 156.448 668.674, 181.606 647.019 M105.874 712.323 C126.028 693.679, 148.729 676.359, 181.606 647.019 M110.105 712.636 C125.323 699.696, 141.696 686.099, 185.837 647.332 M110.105 712.636 C131.565 695.584, 151.098 677.988, 185.837 647.332 M115.094 712.296 C143.706 688.445, 169.806 665.417, 190.826 646.991 M115.094 712.296 C133.536 696.768, 150.195 682.837, 190.826 646.991 M119.325 712.609 C145 690.59, 170.544 672.186, 195.057 647.304 M119.325 712.609 C134.971 699.253, 149.694 685.577, 195.057 647.304 M124.313 712.269 C148.467 690.851, 170.753 673.255, 198.53 648.27 M124.313 712.269 C151.217 688.462, 176.368 666.976, 198.53 648.27 M128.544 712.581 C147.864 695.352, 167.485 679.149, 200.49 650.542 M128.544 712.581 C143.475 700.198, 158.47 687.481, 200.49 650.542 M133.533 712.241 C158.926 691.953, 180.401 673.119, 200.177 654.773 M133.533 712.241 C154.738 692.495, 177.613 673.637, 200.177 654.773 M137.764 712.554 C156.459 692.85, 177.895 676.191, 200.621 658.351 M137.764 712.554 C157.188 696.189, 176.108 679.878, 200.621 658.351 M142.752 712.214 C162.217 695.921, 181.5 675.853, 200.309 662.582 M142.752 712.214 C164.628 693.616, 187.426 672.824, 200.309 662.582 M146.983 712.527 C160.325 701.463, 170.179 693.414, 200.753 666.16 M146.983 712.527 C167.077 695.39, 187.006 677.901, 200.753 666.16 M151.972 712.186 C164.272 702.092, 178.619 690.802, 200.44 670.391 M151.972 712.186 C166.577 699.802, 179.757 687.962, 200.44 670.391 M156.203 712.499 C169.602 701.221, 180.353 690.235, 200.127 674.622 M156.203 712.499 C170.327 700.201, 184.059 689.057, 200.127 674.622 M160.434 712.812 C167.748 703.671, 176.34 697.549, 200.572 678.2 M160.434 712.812 C174.632 700.04, 189.671 688.428, 200.572 678.2 M165.422 712.472 C173.578 705.068, 183.139 696.069, 200.259 682.432 M165.422 712.472 C177.997 700.647, 190.98 690.939, 200.259 682.432 M169.654 712.784 C175.491 705.314, 183.288 701.365, 199.946 686.663 M169.654 712.784 C178.986 704.879, 190.369 696.517, 199.946 686.663 M174.642 712.444 C180.115 705.159, 189.806 699.706, 200.391 690.241 M174.642 712.444 C183.693 703.231, 194.243 695.197, 200.391 690.241 M178.873 712.757 C188.773 706.156, 195.741 698.109, 200.078 694.472 M178.873 712.757 C187.46 705.643, 195.015 698.466, 200.078 694.472 M183.861 712.417 C191.113 706.297, 194.95 700.767, 200.522 698.05 M183.861 712.417 C189.388 708.429, 195.664 702.742, 200.522 698.05 M188.093 712.73 C191.775 711.552, 193.594 708.053, 200.21 702.281 M188.093 712.73 C192.741 709.53, 196.588 706.275, 200.21 702.281 M193.081 712.389 C195.281 709.559, 198.28 708.639, 199.897 706.512 M193.081 712.389 C194.821 711.158, 196.437 709.654, 199.897 706.512" stroke="rgb(31, 32, 32)" stroke-width="2.858" fill="none"></path><path d="M53 647 C105.722 647.705, 157.766 649.591, 197 647 M197 647 C198.778 646.302, 198.88 649.63, 200 650 M200 650 C197.793 667.533, 199.397 682.145, 200 709 M200 709 C201.494 709.981, 198.473 710.306, 197 712 M197 712 C158.227 711.228, 119.207 711.034, 53 712 M53 712 C52.018 712.867, 51.264 708.503, 50 709 M50 709 C48.658 692.355, 51.472 674.259, 50 650 M50 650 C50.92 649.369, 52.083 648.878, 53 647 M53 647 C53 647, 53 647, 53 647" stroke="rgb(204, 204, 204)" stroke-width="1" fill="none"></path></g><g class="text-container" transform="matrix(1 0 0 1 50 10)"><text style="text-anchor: middle; font-size: 16px; font-weight: 400;font-style: normal;font-weight: 400;font-size: 16px;font-family: Comic Sans MS, cursive;" class="actor actor-box" alignment-baseline="central" dominant-baseline="central" y="669.5" x="75" stroke="rgb(204, 204, 204)" stroke-width="1px" fill="rgb(31, 32, 32)" text-anchor="middle"><tspan dy="0" x="75" stroke="none" stroke-width="1px" fill="rgb(211, 211, 211)" text-anchor="middle" dominant-baseline="central">Candidate</tspan></text></g><g><path d="M782.255 74.737 C784.013 290.834, 784.752 505.41, 782.458 647.604" stroke="rgb(204, 204, 204)" stroke-width="2" fill="none"></path></g><g><path d="M707.87 13.181 C707.87 13.181, 707.87 13.181, 707.87 13.181 M707.87 13.181 C707.87 13.181, 707.87 13.181, 707.87 13.181 M707.966 18.18 C709.808 17.533, 709.604 15.093, 712.642 11.688 M707.966 18.18 C709.138 16.551, 710.401 15.609, 712.642 11.688 M708.063 23.179 C709.361 21.526, 711.543 18.526, 716.829 11.007 M708.063 23.179 C710.883 19.854, 712.823 16.343, 716.829 11.007 M708.16 28.178 C712.284 25.059, 713.64 19.363, 720.433 11.138 M708.16 28.178 C710.891 25.705, 713.646 21.019, 720.433 11.138 M708.256 33.177 C713.196 26.23, 721.072 16.283, 724.036 11.268 M708.256 33.177 C713.689 26.377, 719.226 18.808, 724.036 11.268 M707.769 38.988 C715.557 29.46, 720.937 16.316, 727.639 11.398 M707.769 38.988 C714.472 28.971, 721.318 19.714, 727.639 11.398 M707.865 43.987 C717.919 32.195, 724.479 19.759, 731.242 11.529 M707.865 43.987 C716.298 32.969, 723.093 20.998, 731.242 11.529 M707.962 48.986 C717.69 39.29, 724.413 26.275, 734.845 11.659 M707.962 48.986 C714.728 39.993, 719.842 31.129, 734.845 11.659 M708.059 53.985 C718.277 38.378, 728.858 24.591, 738.449 11.79 M708.059 53.985 C720.171 38.566, 729.78 22.422, 738.449 11.79 M708.155 58.984 C718.924 45.362, 728.66 31.035, 742.636 11.108 M708.155 58.984 C722.117 40.582, 733.677 23.878, 742.636 11.108 M708.252 63.983 C723.288 46.151, 734.273 24.848, 746.239 11.239 M708.252 63.983 C718.8 48.685, 730.447 34.313, 746.239 11.239 M707.764 69.794 C716.809 57.274, 727.623 39.777, 749.843 11.369 M707.764 69.794 C722.742 46.713, 740.795 23.651, 749.843 11.369 M709.03 73.17 C722.467 51.326, 736.666 33.49, 753.446 11.5 M709.03 73.17 C724.58 51.525, 739.436 30.685, 753.446 11.5 M710.879 75.734 C728.803 53.479, 747.218 25.826, 757.049 11.63 M710.879 75.734 C726.099 53.199, 741.807 31.823, 757.049 11.63 M714.483 75.865 C725.151 61.807, 737.825 44.782, 760.652 11.76 M714.483 75.865 C723.872 62.969, 733.367 48.784, 760.652 11.76 M718.67 75.184 C737.333 49.793, 752.601 28.697, 764.84 11.079 M718.67 75.184 C730.554 58.927, 741.667 42.908, 764.84 11.079 M722.273 75.314 C738.521 54.4, 750.874 33.129, 768.443 11.21 M722.273 75.314 C735.729 58.912, 748.656 40.833, 768.443 11.21 M725.877 75.444 C735.907 61.856, 744.77 48.589, 772.046 11.34 M725.877 75.444 C739.985 56.824, 752.591 37.563, 772.046 11.34 M729.48 75.575 C743.003 52.756, 760.724 30.833, 775.649 11.47 M729.48 75.575 C747.286 51.766, 763.882 27.594, 775.649 11.47 M733.083 75.705 C745.785 56.618, 759.806 35.912, 779.252 11.601 M733.083 75.705 C746.102 58.959, 758.179 41.827, 779.252 11.601 M736.686 75.836 C755.698 48.448, 772.539 25.727, 782.856 11.731 M736.686 75.836 C755.074 52.614, 771.761 27.445, 782.856 11.731 M740.289 75.966 C757.243 50.314, 774.234 26.916, 786.459 11.861 M740.289 75.966 C754.004 55.99, 769.439 36.435, 786.459 11.861 M744.477 75.285 C762.558 50.535, 781.297 25.612, 790.646 11.18 M744.477 75.285 C754.914 59.965, 766 45.441, 790.646 11.18 M748.08 75.415 C763.27 55.142, 775.126 37.399, 794.25 11.311 M748.08 75.415 C758.962 61.173, 768.479 46.693, 794.25 11.311 M751.683 75.546 C768.168 56.802, 779.661 34.159, 797.853 11.441 M751.683 75.546 C763.424 58.704, 776.02 41.583, 797.853 11.441 M755.287 75.676 C770.026 54.485, 788.802 31.332, 801.456 11.572 M755.287 75.676 C770.919 53.578, 786.663 31.612, 801.456 11.572 M758.89 75.806 C772.255 52.762, 791.11 33.097, 805.059 11.702 M758.89 75.806 C773.232 56.667, 785.792 39.426, 805.059 11.702 M762.493 75.937 C775.977 61.048, 786.826 42.642, 808.662 11.832 M762.493 75.937 C772.598 60.854, 782.986 46.161, 808.662 11.832 M766.096 76.067 C777.181 60.358, 788.208 44.881, 812.85 11.151 M766.096 76.067 C777.883 61.451, 787.195 46.31, 812.85 11.151 M770.284 75.386 C788.972 50.138, 806.828 27.37, 816.453 11.282 M770.284 75.386 C787.03 50.144, 805.173 25.622, 816.453 11.282 M773.887 75.516 C785.206 59.249, 796.305 44.143, 820.056 11.412 M773.887 75.516 C791.634 49.839, 810.998 24.842, 820.056 11.412 M777.49 75.647 C796.584 53.778, 811.987 26.865, 823.66 11.542 M777.49 75.647 C786.045 61.845, 796.704 47.55, 823.66 11.542 M781.093 75.777 C798.462 56.732, 810.472 32.635, 827.263 11.673 M781.093 75.777 C797.79 51.709, 814.694 30.474, 827.263 11.673 M784.697 75.908 C796.846 62.295, 804.965 46.41, 830.866 11.803 M784.697 75.908 C799.236 56.207, 813.008 36.231, 830.866 11.803 M788.3 76.038 C807.202 53.811, 822.273 28.491, 834.469 11.933 M788.3 76.038 C801.142 59.146, 811.802 42.202, 834.469 11.933 M792.487 75.357 C807.896 57.547, 820.627 35.52, 838.657 11.252 M792.487 75.357 C809.119 53.432, 823.396 31.154, 838.657 11.252 M796.091 75.487 C812.353 52.083, 830.045 27.802, 842.26 11.383 M796.091 75.487 C813.175 53.714, 829.297 29.544, 842.26 11.383 M799.694 75.618 C813.244 56.444, 826.155 38.951, 845.863 11.513 M799.694 75.618 C816.982 51.719, 834.229 28.052, 845.863 11.513 M803.297 75.748 C813.834 59.009, 825.937 43.797, 849.466 11.643 M803.297 75.748 C819.194 54.047, 834.809 31.493, 849.466 11.643 M806.9 75.878 C821.288 51.806, 840.709 30.835, 853.07 11.774 M806.9 75.878 C824.545 51.971, 841.579 29.147, 853.07 11.774 M810.503 76.009 C823.855 55.124, 838.733 36.686, 857.257 11.093 M810.503 76.009 C820.141 63.284, 829.507 49.131, 857.257 11.093 M814.107 76.139 C830.034 52.077, 847.665 30.799, 859.107 13.657 M814.107 76.139 C830.868 52.978, 847.191 29.414, 859.107 13.657 M818.294 75.458 C832.607 57.308, 845.855 37.313, 859.204 18.657 M818.294 75.458 C826.84 63.873, 834.488 52.487, 859.204 18.657 M821.897 75.588 C832.668 60.473, 843.119 46.438, 858.716 24.467 M821.897 75.588 C831.419 62.57, 842.061 49.505, 858.716 24.467 M825.501 75.719 C837.994 60.132, 845.736 48.004, 858.813 29.466 M825.501 75.719 C833.847 63.874, 843.673 51.625, 858.813 29.466 M829.104 75.849 C836.462 63.75, 845.422 52.494, 858.909 34.465 M829.104 75.849 C839.497 59.97, 852.335 44.82, 858.909 34.465 M832.707 75.979 C842.265 63.848, 849.186 52.466, 859.006 39.464 M832.707 75.979 C839.082 68.143, 844.571 60.234, 859.006 39.464 M836.31 76.11 C841.672 67.7, 847.258 60.537, 859.103 44.463 M836.31 76.11 C844.177 65.931, 851.61 56.208, 859.103 44.463 M840.498 75.429 C847.275 69.101, 851.485 58.509, 858.615 50.274 M840.498 75.429 C846.708 67.263, 852.847 58.64, 858.615 50.274 M844.101 75.559 C846.383 69.369, 850.709 64.907, 858.712 55.273 M844.101 75.559 C850.173 67.107, 855.377 60.156, 858.712 55.273 M847.704 75.69 C853.245 70.446, 856.89 63.239, 858.808 60.272 M847.704 75.69 C851.37 71.018, 853.61 67.261, 858.808 60.272 M851.307 75.82 C853.87 72.832, 856.546 68.968, 858.905 65.271 M851.307 75.82 C854.487 71.886, 857.725 68.22, 858.905 65.271 M855.495 75.139 C856.827 74.081, 856.862 72.5, 859.002 70.27 M855.495 75.139 C856.67 73.307, 858.258 71.559, 859.002 70.27" stroke="rgb(31, 32, 32)" stroke-width="1.201" fill="none"></path><path d="M711 10 C742.406 9.409, 775.955 10.315, 855 10 M855 10 C855.986 11.123, 859.486 10.479, 858 13 M858 13 C859.149 29.076, 858.177 48.489, 858 72 M858 72 C856.963 74.99, 856.193 73.996, 855 75 M855 75 C797.316 74.32, 741.576 75.726, 711 75 M711 75 C708.95 74.751, 709.091 73.868, 708 72 M708 72 C708.468 57.113, 708.282 41.397, 708 13 M708 13 C707.628 12.308, 708.843 10.662, 711 10 M711 10 C711 10, 711 10, 711 10" stroke="rgb(204, 204, 204)" stroke-width="1" fill="none"></path></g><g class="text-container" transform="matrix(1 0 0 1 50 10)"><text style="text-anchor: middle; font-size: 16px; font-weight: 400;font-style: normal;font-weight: 400;font-size: 16px;font-family: Comic Sans MS, cursive;" class="actor actor-box" alignment-baseline="central" dominant-baseline="central" y="32.5" x="733" stroke="rgb(204, 204, 204)" stroke-width="1px" fill="rgb(31, 32, 32)" text-anchor="middle"><tspan dy="0" x="733" stroke="none" stroke-width="1px" fill="rgb(211, 211, 211)" text-anchor="middle" dominant-baseline="central">HR Officer</tspan></text></g><g><path d="M440.622 74.39 C440.232 273.788, 440.49 471.754, 440.381 646.323" stroke="rgb(204, 204, 204)" stroke-width="2" fill="none"></path></g><g><path d="M369.104 9.899 C369.104 9.899, 369.104 9.899, 369.104 9.899 M369.104 9.899 C369.104 9.899, 369.104 9.899, 369.104 9.899 M366.911 16.238 C368.237 15.656, 370.107 12.657, 373.346 9.947 M366.911 16.238 C369.075 13.904, 371.237 12.62, 373.346 9.947 M366.863 20.481 C372.121 15.657, 374.254 13.248, 377.588 9.994 M366.863 20.481 C368.389 18.823, 371.995 16.49, 377.588 9.994 M366.815 24.723 C372.063 20.724, 373.55 14.471, 381.831 10.042 M366.815 24.723 C372.858 19.743, 378.835 12.065, 381.831 10.042 M366.767 28.966 C372.435 24.905, 377.262 21.31, 386.073 10.09 M366.767 28.966 C370.734 24.995, 376.319 20.38, 386.073 10.09 M366.719 33.208 C375.664 23.921, 385.883 15.581, 390.315 10.138 M366.719 33.208 C372.612 28.644, 376.109 22.661, 390.315 10.138 M366.672 37.45 C371.58 31.261, 380.083 26.819, 394.558 10.186 M366.672 37.45 C376.169 26.532, 386.495 16.561, 394.558 10.186 M366.624 41.693 C376.427 32.306, 383.292 23.371, 398.8 10.233 M366.624 41.693 C374.434 33.122, 383.371 25.45, 398.8 10.233 M366.576 45.935 C377.54 33.846, 387.121 22.804, 403.043 10.281 M366.576 45.935 C376.629 35.976, 388.222 25.881, 403.043 10.281 M366.528 50.177 C379.553 36.205, 390.185 27.019, 407.285 10.329 M366.528 50.177 C376.639 39.861, 386.575 31.034, 407.285 10.329 M366.48 54.42 C382.837 35.985, 399.834 21.144, 411.527 10.377 M366.48 54.42 C380.357 41.381, 391.433 28.609, 411.527 10.377 M366.433 58.662 C384.151 39.3, 404.743 21.828, 415.77 10.425 M366.433 58.662 C384.7 42.242, 400.2 26.506, 415.77 10.425 M366.385 62.905 C385.315 45.845, 401.898 26.938, 420.727 9.773 M366.385 62.905 C377.998 51.007, 389.596 39.644, 420.727 9.773 M366.337 67.147 C385.691 47.247, 403.216 29.321, 424.969 9.821 M366.337 67.147 C378.422 55.095, 391.495 43.021, 424.969 9.821 M367.004 70.69 C382.568 54.032, 397.538 38.539, 429.212 9.869 M367.004 70.69 C390.46 46.83, 414.25 24.149, 429.212 9.869 M367.671 74.233 C388.72 53.723, 412.667 30.335, 433.454 9.917 M367.671 74.233 C383.663 58.433, 400.496 41.84, 433.454 9.917 M371.199 74.98 C391.69 57.522, 411.063 36.448, 437.697 9.965 M371.199 74.98 C396.508 49.508, 422.123 23.314, 437.697 9.965 M375.441 75.028 C396.103 53.364, 418.288 32.187, 441.939 10.012 M375.441 75.028 C398.895 52.754, 420.464 30.919, 441.939 10.012 M379.683 75.076 C402.69 50.513, 427.363 27.541, 446.181 10.06 M379.683 75.076 C399.848 53.657, 421.334 33.682, 446.181 10.06 M383.926 75.124 C411.622 49.468, 437.146 21.797, 450.424 10.108 M383.926 75.124 C398.304 60.685, 414.29 45.272, 450.424 10.108 M388.168 75.172 C412.691 48.464, 440.647 25.802, 454.666 10.156 M388.168 75.172 C412.468 51.112, 435.589 29.026, 454.666 10.156 M392.411 75.219 C409.797 58.101, 426.743 44.413, 458.908 10.204 M392.411 75.219 C413.935 53.813, 434.945 32.554, 458.908 10.204 M396.653 75.267 C415.561 57.818, 429.699 43.651, 463.151 10.251 M396.653 75.267 C419.159 53.095, 444.785 29.015, 463.151 10.251 M400.895 75.315 C416.241 60.416, 434.303 42.119, 467.393 10.299 M400.895 75.315 C422.746 53.067, 445.529 31.031, 467.393 10.299 M405.138 75.363 C419.983 59.536, 440.248 42.492, 471.635 10.347 M405.138 75.363 C417.9 61.853, 432.029 50.31, 471.635 10.347 M409.38 75.411 C427.516 57.815, 449.75 35.248, 475.878 10.395 M409.38 75.411 C428.98 56.329, 450.133 36.876, 475.878 10.395 M413.622 75.458 C437.039 53.807, 461.191 29.124, 480.12 10.443 M413.622 75.458 C439.773 49.563, 467.101 25.211, 480.12 10.443 M417.865 75.506 C443.969 50.802, 469.239 28.199, 484.363 10.491 M417.865 75.506 C434.976 58.207, 451.2 42.992, 484.363 10.491 M422.107 75.554 C439.496 58.063, 455.313 42.306, 488.605 10.538 M422.107 75.554 C446.117 52.732, 470.555 29.116, 488.605 10.538 M427.065 74.903 C450.191 54.122, 471.703 29.167, 492.847 10.586 M427.065 74.903 C450.903 49.365, 477.073 24.872, 492.847 10.586 M431.307 74.951 C451.493 56.524, 472.648 32.982, 497.805 9.935 M431.307 74.951 C450.293 56.29, 470.091 37.782, 497.805 9.935 M435.549 74.998 C452.186 55.69, 469.461 39.212, 502.047 9.983 M435.549 74.998 C453.17 58.089, 470.639 39.07, 502.047 9.983 M439.792 75.046 C459.104 55.025, 480.265 35.539, 506.289 10.03 M439.792 75.046 C466.895 49.455, 492.129 24.518, 506.289 10.03 M444.034 75.094 C459.649 57.216, 476.744 40.7, 510.532 10.078 M444.034 75.094 C467.337 51.532, 491.336 29.088, 510.532 10.078 M448.276 75.142 C469.917 55.764, 487.502 36.203, 514.059 10.825 M448.276 75.142 C471.431 52.988, 493.678 30.625, 514.059 10.825 M452.519 75.19 C477.829 51.776, 501.855 28.702, 516.156 12.97 M452.519 75.19 C466.882 61.468, 483.417 46.544, 516.156 12.97 M456.761 75.237 C477.247 58.159, 494.277 37.12, 516.109 17.213 M456.761 75.237 C474.661 58.752, 492.492 41.097, 516.109 17.213 M461.004 75.285 C478.959 56.47, 499.834 37.375, 516.061 21.455 M461.004 75.285 C476.684 58.33, 493.232 43.923, 516.061 21.455 M465.246 75.333 C479.125 61.798, 495.874 44.684, 516.013 25.697 M465.246 75.333 C476.446 63.522, 489.073 51.583, 516.013 25.697 M469.488 75.381 C484.348 60.161, 498.516 46.521, 515.965 29.94 M469.488 75.381 C486.377 60.288, 502.15 45.102, 515.965 29.94 M473.731 75.429 C483.542 65.379, 495.219 52.749, 515.917 34.182 M473.731 75.429 C490.674 60.179, 506.046 44.516, 515.917 34.182 M477.973 75.476 C491.499 60.618, 507.433 49.774, 515.87 38.425 M477.973 75.476 C490.929 63.082, 503.259 49.647, 515.87 38.425 M482.215 75.524 C490.425 65.701, 498.85 59.656, 515.822 42.667 M482.215 75.524 C489.207 68.918, 495.934 60.695, 515.822 42.667 M486.458 75.572 C492.972 67.524, 500.934 64.377, 515.774 46.909 M486.458 75.572 C496.57 65.234, 507.018 56.321, 515.774 46.909 M490.7 75.62 C499.232 67.917, 507.053 61.726, 515.726 51.152 M490.7 75.62 C501.283 66.582, 510.371 56.305, 515.726 51.152 M494.943 75.668 C500.887 69.022, 504.251 64.467, 515.678 55.394 M494.943 75.668 C500.591 69.575, 507.196 62.683, 515.678 55.394 M499.9 75.016 C504.015 72.692, 506.328 67.002, 515.631 59.636 M499.9 75.016 C505.131 71.736, 508.173 67.247, 515.631 59.636 M504.142 75.064 C507.654 71.883, 509.736 68.317, 515.583 63.879 M504.142 75.064 C507.593 71.272, 511.16 68.503, 515.583 63.879 M508.385 75.112 C510.307 73.757, 511.333 72.592, 515.535 68.121 M508.385 75.112 C509.666 73.131, 511.562 71.898, 515.535 68.121 M512.627 75.16 C513.524 74.164, 513.864 73.72, 515.487 72.363 M512.627 75.16 C513.659 74.339, 514.196 73.522, 515.487 72.363" stroke="rgb(31, 32, 32)" stroke-width="1.875" fill="none"></path><path d="M369 10 C403.466 9.358, 434.819 10.564, 513 10 M369 10 C413.138 9.961, 457.237 10.739, 513 10 M513 10 C513.37 9.981, 515.049 11.167, 516 13 M513 10 C512.925 7.967, 515.981 10.338, 516 13 M516 13 C514.245 28.634, 517.168 46.754, 516 72 M516 13 C517.292 35.896, 517.391 58.93, 516 72 M516 72 C514.996 71.87, 513.538 74.015, 513 75 M516 72 C514.915 73.557, 513.493 75.412, 513 75 M513 75 C461.633 73.182, 413.282 73.869, 369 75 M513 75 C461.572 76.14, 407.965 76.076, 369 75 M369 75 C368.368 76.679, 366.529 73.901, 366 72 M369 75 C368.231 73.45, 364.819 73.509, 366 72 M366 72 C366.964 55.311, 366.469 41.143, 366 13 M366 72 C365.558 54.306, 365.403 37.066, 366 13 M366 13 C366.485 12.183, 367.818 11.259, 369 10 M366 13 C366.711 13.856, 368.219 9.234, 369 10 M369 10 C369 10, 369 10, 369 10 M369 10 C369 10, 369 10, 369 10" stroke="rgb(204, 204, 204)" stroke-width="1" fill="none"></path></g><g class="text-container" transform="matrix(1 0 0 1 50 10)"><text style="text-anchor: middle; font-size: 16px; font-weight: 400;font-style: normal;font-weight: 400;font-size: 16px;font-family: Comic Sans MS, cursive;" class="actor actor-box" alignment-baseline="central" dominant-baseline="central" y="32.5" x="391" stroke="rgb(204, 204, 204)" stroke-width="1px" fill="rgb(31, 32, 32)" text-anchor="middle"><tspan dy="0" x="391" stroke="none" stroke-width="1px" fill="rgb(211, 211, 211)" text-anchor="middle" dominant-baseline="central">Forecaster</tspan></text></g><g><path d="M124.364 74.891 C127.394 198.262, 126.613 320.418, 125.571 646.653" stroke="rgb(204, 204, 204)" stroke-width="2" fill="none"></path></g><g><path d="M49.914 13.134 C49.914 13.134, 49.914 13.134, 49.914 13.134 M49.914 13.134 C49.914 13.134, 49.914 13.134, 49.914 13.134 M50.025 20.344 C50.886 17.993, 52.196 16.194, 55.443 11.939 M50.025 20.344 C51.212 18.49, 52.998 15.949, 55.443 11.939 M50.137 27.555 C53.092 22.052, 54.625 21.36, 60.43 11.584 M50.137 27.555 C52.985 22.869, 56.201 17.118, 60.43 11.584 M50.249 34.765 C53.672 29.862, 59.448 23.215, 64.876 12.07 M50.249 34.765 C56.384 25.928, 61.356 18.791, 64.876 12.07 M49.819 42.816 C56.396 33.199, 62.788 20.668, 69.863 11.715 M49.819 42.816 C54.117 36.613, 57.358 28.901, 69.863 11.715 M49.931 50.026 C57.194 37.887, 64.885 27.145, 74.851 11.36 M49.931 50.026 C57.221 39.983, 62.471 30.491, 74.851 11.36 M50.043 57.236 C60.129 39.587, 70.794 24.631, 79.296 11.846 M50.043 57.236 C55.236 48.496, 62.289 37.437, 79.296 11.846 M50.155 64.446 C57.486 51.899, 63.543 43.006, 84.284 11.492 M50.155 64.446 C63.832 43.862, 76.668 23.873, 84.284 11.492 M50.266 71.656 C64.052 49.052, 79.183 25.509, 88.729 11.977 M50.266 71.656 C62.743 51.754, 77.271 29.94, 88.729 11.977 M52.545 75.505 C63.518 60.6, 74.514 43.166, 93.717 11.623 M52.545 75.505 C64.772 56.51, 74.882 38.335, 93.717 11.623 M57.532 75.15 C67.966 55.064, 82.558 36.8, 98.162 12.108 M57.532 75.15 C65.283 61.321, 74.805 46.548, 98.162 12.108 M61.978 75.636 C69.322 61.901, 79.12 47.248, 103.15 11.754 M61.978 75.636 C75.939 53.354, 89.83 30.869, 103.15 11.754 M66.966 75.281 C82.053 54.586, 96.113 33.73, 108.137 11.399 M66.966 75.281 C79.162 57.105, 89.912 37.565, 108.137 11.399 M71.953 74.926 C83.93 57.745, 97.582 37.796, 112.583 11.885 M71.953 74.926 C84.747 54.778, 97.171 36.892, 112.583 11.885 M76.399 75.412 C84.476 61.137, 94.793 49.565, 117.57 11.53 M76.399 75.412 C84.687 63.345, 93.6 50.354, 117.57 11.53 M81.386 75.057 C88.417 62.829, 99.793 49.234, 122.016 12.016 M81.386 75.057 C97.077 48.694, 113.326 25.206, 122.016 12.016 M85.832 75.543 C100.945 51.654, 115.346 28.284, 127.003 11.661 M85.832 75.543 C100.73 53.744, 115.958 30.854, 127.003 11.661 M90.819 75.188 C101.36 58.452, 111.883 41.987, 131.449 12.147 M90.819 75.188 C106.62 49.906, 123.155 24.909, 131.449 12.147 M95.265 75.674 C109.936 55.519, 121.812 38.011, 136.436 11.792 M95.265 75.674 C105.246 61.22, 115.314 46.324, 136.436 11.792 M100.252 75.319 C111.988 55.387, 124.632 37.614, 141.424 11.438 M100.252 75.319 C114.822 53.782, 128.378 30.946, 141.424 11.438 M105.24 74.965 C117.876 52.899, 131.175 32.454, 145.87 11.923 M105.24 74.965 C115.584 58.441, 126.661 41.995, 145.87 11.923 M109.685 75.451 C120.113 56.662, 133.408 37.864, 150.857 11.569 M109.685 75.451 C119.65 61.324, 129.195 45.725, 150.857 11.569 M114.673 75.096 C128.875 54.045, 142.78 29.998, 155.303 12.055 M114.673 75.096 C127.195 56.144, 138.698 37.069, 155.303 12.055 M119.118 75.582 C135.402 50.018, 150.861 28.116, 160.29 11.7 M119.118 75.582 C130.097 60.873, 139.08 45.968, 160.29 11.7 M124.106 75.227 C136.087 57.438, 144.645 43.343, 164.736 12.186 M124.106 75.227 C138.734 52.863, 153.191 30.532, 164.736 12.186 M128.551 75.713 C144.115 52.272, 158.607 28.37, 169.723 11.831 M128.551 75.713 C137.832 60.531, 148.072 46.145, 169.723 11.831 M133.539 75.358 C151.477 49.918, 164.452 28.603, 174.169 12.317 M133.539 75.358 C149.925 51.412, 164.973 28.147, 174.169 12.317 M137.984 75.844 C151.159 55.724, 163.655 33.977, 179.156 11.962 M137.984 75.844 C153.818 50.658, 170.82 24.038, 179.156 11.962 M142.972 75.489 C156.234 50.959, 174.012 26.789, 184.144 11.607 M142.972 75.489 C156.138 53.898, 170.207 31.523, 184.144 11.607 M147.959 75.134 C165.149 51.449, 179.959 25.509, 188.589 12.093 M147.959 75.134 C162.895 50.579, 177.85 27.516, 188.589 12.093 M152.405 75.62 C162.726 60.851, 169.742 46.27, 193.577 11.738 M152.405 75.62 C164.309 58.671, 174.476 41.34, 193.577 11.738 M157.392 75.266 C168.709 53.422, 184.468 34.17, 199.106 10.543 M157.392 75.266 C172.647 50.655, 190.453 25.08, 199.106 10.543 M161.838 75.751 C173.379 59.165, 184.278 38.847, 201.384 14.391 M161.838 75.751 C171.582 58.153, 182.882 41.289, 201.384 14.391 M166.825 75.397 C174.8 63.983, 184.813 48.458, 201.496 21.601 M166.825 75.397 C176.57 60.688, 187.228 44.274, 201.496 21.601 M171.271 75.882 C177.934 62.844, 190.268 49.434, 201.608 28.812 M171.271 75.882 C179.356 63.689, 187.589 53.245, 201.608 28.812 M176.258 75.528 C179.771 68.067, 185.152 58.016, 201.72 36.022 M176.258 75.528 C184.723 61.949, 191.991 51.101, 201.72 36.022 M181.246 75.173 C187.625 67.301, 192.424 59.794, 201.29 44.073 M181.246 75.173 C187.15 65.7, 192.995 57.694, 201.29 44.073 M185.692 75.659 C193.707 67.342, 197.283 55.835, 201.402 51.283 M185.692 75.659 C188.685 68.979, 192.067 65.054, 201.402 51.283 M190.679 75.304 C195.177 69.282, 199.183 63.848, 201.514 58.493 M190.679 75.304 C192.709 70.719, 196.39 66.363, 201.514 58.493 M195.125 75.79 C197.591 71.254, 199.416 68.565, 201.625 65.703 M195.125 75.79 C196.342 73.197, 198.502 71.093, 201.625 65.703" stroke="rgb(31, 32, 32)" stroke-width="1.956" fill="none"></path><path d="M53 10 C95.738 9.287, 133.58 10.264, 197 10 M53 10 C85.119 8.723, 115.036 10.341, 197 10 M197 10 C199.61 8.582, 200.676 9.869, 200 13 M197 10 C197.681 8.447, 201.498 10.91, 200 13 M200 13 C198.926 29.456, 200.546 44.481, 200 72 M200 13 C200.734 28.511, 199.358 42.53, 200 72 M200 72 C201.413 73.282, 196.583 75.247, 197 75 M200 72 C198.132 73.305, 198.491 73.084, 197 75 M197 75 C162.245 76.403, 129.919 76.982, 53 75 M197 75 C149.033 74.508, 99.838 74.871, 53 75 M53 75 C52.777 73.645, 49.279 75.252, 50 72 M53 75 C50.393 77.165, 52.137 73.087, 50 72 M50 72 C48.006 50.902, 50.773 30.312, 50 13 M50 72 C48.539 53.767, 49.734 35.938, 50 13 M50 13 C51.623 13.17, 53.481 9.765, 53 10 M50 13 C48.642 13.064, 53.217 9.114, 53 10 M53 10 C53 10, 53 10, 53 10 M53 10 C53 10, 53 10, 53 10" stroke="rgb(204, 204, 204)" stroke-width="1" fill="none"></path></g><g class="text-container" transform="matrix(1 0 0 1 50 10)"><text style="text-anchor: middle; font-size: 16px; font-weight: 400;font-style: normal;font-weight: 400;font-size: 16px;font-family: Comic Sans MS, cursive;" class="actor actor-box" alignment-baseline="central" dominant-baseline="central" y="32.5" x="75" stroke="rgb(204, 204, 204)" stroke-width="1px" fill="rgb(31, 32, 32)" text-anchor="middle"><tspan dy="0" x="75" stroke="none" stroke-width="1px" fill="rgb(211, 211, 211)" text-anchor="middle" dominant-baseline="central">Candidate</tspan></text></g><g class="text-container" transform="matrix(1 0 0 1 50 10)"><text style="font-size: 16px; font-weight: 400;font-style: normal;font-weight: 400;font-size: 16px;font-family: Comic Sans MS, cursive;" dy="1em" class="messageText" alignment-baseline="middle" dominant-baseline="middle" text-anchor="middle" y="80" x="232" stroke="none" stroke-width="1px" fill="rgb(211, 211, 211)">Initial tests</text></g><g><path d="M127.015 124.183 C206.648 121.728, 287.33 122.801, 436.947 123.899" stroke="rgb(211, 211, 211)" stroke-width="1.5" fill="none"></path></g><g><path d="M427.802 118.357 C427.802 118.357, 427.802 118.357, 427.802 118.357 M427.802 118.357 C427.802 118.357, 427.802 118.357, 427.802 118.357 M428.884 121.739 C429.435 121.119, 430.594 119.808, 431.028 119.425 M428.729 121.704 C429.555 120.982, 430.253 120.126, 430.721 119.413 M429.892 125.988 C430.022 125.044, 431.363 123.434, 433.471 119.971 M429.276 126.268 C430.668 124.372, 432.257 122.932, 433.92 120.688 M432.427 126.565 C434.064 126.325, 435.056 124.261, 436.899 122.379 M432.475 127.09 C433.991 125.203, 435.501 123.274, 436.315 121.88" stroke="rgb(211, 211, 211)" stroke-width="0.592" fill="none"></path><path d="M428.619 118.546 C431.327 119.818, 437.594 122.444, 439.437 122.123 M439.215 122.896 C436.182 125.772, 430.159 126.888, 427.983 128.009 M429.674 128.575 C427.842 124.67, 429.398 121.079, 427.121 117.333" stroke="rgb(211, 211, 211)" stroke-width="1" fill="none"></path></g><g class="text-container" transform="matrix(1 0 0 1 50 10)"><text style="font-size: 16px; font-weight: 400;font-style: normal;font-weight: 400;font-size: 16px;font-family: Comic Sans MS, cursive;" dy="1em" class="messageText" alignment-baseline="middle" dominant-baseline="middle" text-anchor="middle" y="128" x="392" stroke="none" stroke-width="1px" fill="rgb(211, 211, 211)">Gather info from internal systems</text></g><g><path d="M442 171 C500.961 159.515, 500.415 199.022, 442 191" stroke="rgb(211, 211, 211)" stroke-width="1.5" fill="none"></path></g><g><path d="M437.25 182.746 C437.25 182.746, 437.25 182.746, 437.25 182.746 M437.25 182.746 C437.25 182.746, 437.25 182.746, 437.25 182.746 M438.323 186.035 C438.759 185.033, 439.579 184.655, 440.766 182.831 M438.694 186.147 C439.255 184.635, 440.445 183.446, 440.871 182.778 M440.284 189.55 C441.296 186.071, 443.802 184.588, 445.467 182.305 M440.114 189.267 C441.668 186.861, 442.936 185.014, 445.286 182.573 M441.993 192.125 C442.574 190.522, 443.017 189.869, 445.173 187.626 M441.63 191.736 C442.573 190.736, 443.227 189.154, 445.272 186.908" stroke="rgb(211, 211, 211)" stroke-width="0.624" fill="none"></path><path d="M447.729 181.307 C445.499 184.958, 445.49 188.22, 442.767 194.071 M440.946 193.698 C438.84 188.84, 438.916 185.087, 436.888 182.739 M437.764 183.728 C439.885 183.653, 444.121 182.522, 447.055 181.601" stroke="rgb(211, 211, 211)" stroke-width="1" fill="none"></path></g><g class="text-container" transform="matrix(1 0 0 1 50 10)"><text style="font-size: 16px; font-weight: 400;font-style: normal;font-weight: 400;font-size: 16px;font-family: Comic Sans MS, cursive;" dy="1em" class="messageText" alignment-baseline="middle" dominant-baseline="middle" text-anchor="middle" y="206" x="392" stroke="none" stroke-width="1px" fill="rgb(211, 211, 211)">Decide relevant roles</text></g><g><path d="M442 249 C501.998 240.971, 503.002 279.542, 442 269 M442 249 C501.475 241.057, 503.985 280.786, 442 269" stroke="rgb(211, 211, 211)" stroke-width="1.5" fill="none"></path></g><g><path d="M436.932 261.217 C436.932 261.217, 436.932 261.217, 436.932 261.217 M436.932 261.217 C436.932 261.217, 436.932 261.217, 436.932 261.217 M437.912 263.249 C438.631 262.324, 438.68 261.891, 439.546 260.197 M438.215 263.008 C438.473 262.445, 438.835 261.791, 439.761 260.528 M439.18 264.988 C440.564 263.558, 440.764 262.184, 442.059 260.4 M439.345 264.79 C439.831 263.889, 440.846 262.65, 441.665 260.416 M440.538 268.157 C441.068 264.705, 443.183 263.116, 444.189 261.216 M440.264 267.671 C440.951 266.144, 442.327 264.549, 443.85 260.991 M441.567 269.583 C444.251 265.84, 445.532 263.715, 446.866 260.672 M441.413 269.893 C443.399 266.151, 444.637 263.052, 446.581 260.323" stroke="rgb(211, 211, 211)" stroke-width="1.659" fill="none"></path><path d="M447.44 261.265 C446.353 263.686, 445.309 266.7, 440.968 270.604 M447.475 260.455 C445.1 264.805, 442.844 268.31, 441.476 271.439 M443.093 271.974 C439.277 266.861, 437.367 264.062, 438.115 261.897 M441.959 271.504 C441.204 269.247, 439.298 266.556, 436.468 261.038 M437.096 260.818 C440.309 259.846, 443.825 260.557, 446.574 260.361 M437.428 260.794 C439.545 260.88, 441.009 260.584, 447.341 260.065" stroke="rgb(211, 211, 211)" stroke-width="1" fill="none"></path></g><g class="text-container" transform="matrix(1 0 0 1 50 10)"><text style="font-size: 16px; font-weight: 400;font-style: normal;font-weight: 400;font-size: 16px;font-family: Comic Sans MS, cursive;" dy="1em" class="messageText" alignment-baseline="middle" dominant-baseline="middle" text-anchor="middle" y="284" x="235" stroke="none" stroke-width="1px" fill="rgb(211, 211, 211)">Publish preferences questionnaire</text></g><g><path d="M439.695 327.02 C319.27 328.1, 199.198 327.125, 129.775 327.199" stroke="rgb(211, 211, 211)" stroke-width="1.5" fill="none"></path></g><g><path d="M126.905 326.993 C126.905 326.993, 126.905 326.993, 126.905 326.993 M126.905 326.993 C126.905 326.993, 126.905 326.993, 126.905 326.993 M128.364 327.808 C129.741 326.826, 130.119 325.946, 130.926 325.072 M128.566 328.369 C128.955 327.334, 129.791 326.543, 130.913 324.858 M130.12 327.962 C131.296 327.539, 132.706 326.005, 134.52 323.252 M130.659 328.249 C131.803 327.23, 133.055 325.322, 134.555 323.056 M132.187 330.494 C133.743 326.958, 136.19 323.685, 136.885 321.834 M132.328 329.984 C134.154 327.343, 136.468 324.173, 137.621 322.793 M135.031 330.117 C135.65 328.696, 136.491 326.707, 138.133 325.313 M134.777 329.876 C135.488 329.207, 135.714 328.358, 138.313 325.367 M136.276 331.49 C136.81 330.563, 137.178 329.744, 137.975 328.886 M136.148 331.261 C136.724 330.562, 137.372 329.654, 137.924 328.898" stroke="rgb(211, 211, 211)" stroke-width="0.786" fill="none"></path><path d="M137.548 331.478 C134.777 329.887, 129.84 327.243, 127.931 327.427 M137.366 331.533 C134.234 330.145, 128.817 327.942, 127.371 326.801 M126.215 327.901 C129.055 325.413, 131.715 324.865, 136.976 323.077 M126.411 327.259 C129.875 325.684, 131.994 324.586, 137.363 321.665 M136.08 322.76 C136.741 325.076, 137.825 329.948, 137.171 331.13 M137 322.089 C137.171 325.631, 137.008 327.827, 138.251 331.765" stroke="rgb(211, 211, 211)" stroke-width="1" fill="none"></path></g><g class="text-container" transform="matrix(1 0 0 1 50 10)"><text style="font-size: 16px; font-weight: 400;font-style: normal;font-weight: 400;font-size: 16px;font-family: Comic Sans MS, cursive;" dy="1em" class="messageText" alignment-baseline="middle" dominant-baseline="middle" text-anchor="middle" y="332" x="232" stroke="none" stroke-width="1px" fill="rgb(211, 211, 211)">Fill questionnaire</text></g><g><path d="M127.246 376.359 C192.103 375.404, 256.993 374.592, 437.501 375.946 M126.129 374.437 C228.498 377.033, 330.145 377.329, 437.447 374.774" stroke="rgb(211, 211, 211)" stroke-width="1.5" fill="none"></path></g><g><path d="M428.223 369.878 C428.223 369.878, 428.223 369.878, 428.223 369.878 M428.223 369.878 C428.223 369.878, 428.223 369.878, 428.223 369.878 M428.483 372.679 C428.937 371.872, 429.858 371.595, 430.541 370.458 M428.215 372.833 C428.868 371.985, 429.616 371.35, 430.281 370.661 M429.23 375.144 C429.994 374.03, 430.971 373.477, 431.977 372.267 M428.992 374.734 C429.778 373.863, 430.983 372.962, 431.607 372.061 M429.177 377.822 C429.51 376.507, 431.807 375.084, 433.578 372.68 M429.046 377.329 C430.379 376.202, 431.059 375.158, 433.581 372.999 M430.385 379.608 C432.136 377.451, 434.292 375.833, 436.833 372.924 M430.036 380.092 C431.534 377.506, 433.835 376.146, 435.576 373.434 M435.286 376.91 C436.373 375.558, 437.155 375.262, 438.143 373.827 M435.134 376.99 C436.25 376.107, 437.234 375.185, 438.145 374.01" stroke="rgb(211, 211, 211)" stroke-width="1.61" fill="none"></path><path d="M427.973 370.959 C430.892 372.279, 434.664 373.687, 438.235 375.401 M438.895 375.174 C436.668 376.724, 431.272 377.483, 428.302 380.165 M429.087 380.756 C428.821 376.568, 428.647 374.724, 428.343 369.803" stroke="rgb(211, 211, 211)" stroke-width="1" fill="none"></path></g><g class="text-container" transform="matrix(1 0 0 1 50 10)"><text style="font-size: 16px; font-weight: 400;font-style: normal;font-weight: 400;font-size: 16px;font-family: Comic Sans MS, cursive;" dy="1em" class="messageText" alignment-baseline="middle" dominant-baseline="middle" text-anchor="middle" y="380" x="564" stroke="none" stroke-width="1px" fill="rgb(211, 211, 211)">Fill group preferences</text></g><g><path d="M781.916 423.948 C648.442 421.915, 513.975 421.304, 443.809 424.276 M781.41 423.508 C673.58 422.117, 565.494 422.554, 444.537 423.577" stroke="rgb(211, 211, 211)" stroke-width="1.5" fill="none"></path></g><g><path d="M442.956 422.91 C442.956 422.91, 442.956 422.91, 442.956 422.91 M442.956 422.91 C442.956 422.91, 442.956 422.91, 442.956 422.91 M444.932 424.077 C445.433 423.39, 445.518 422.152, 446.528 421.304 M444.612 424.108 C444.946 423.227, 445.652 422.639, 446.366 421.538 M446.418 425.405 C447.362 423.621, 447.353 422.358, 449.272 419.837 M446.221 425.23 C447.374 423.75, 447.866 422.255, 449.474 419.76 M447.784 425.285 C450.753 423.167, 452.344 420.279, 452.992 418.528 M448.378 425.582 C449.817 423.111, 451.118 420.596, 453.112 418.103 M449.995 426.862 C450.94 424.353, 452.305 423.544, 452.913 421.634 M449.979 426.238 C451.066 424.851, 451.884 423.566, 453.606 421.408 M451.926 427.132 C452.551 426.423, 452.878 425.668, 453.444 424.925 M451.962 427.409 C452.336 426.688, 452.907 426.092, 453.553 424.892" stroke="rgb(211, 211, 211)" stroke-width="1.459" fill="none"></path><path d="M454.54 427.296 C449.068 425.093, 444.943 423.757, 441.837 423.645 M443.824 424.073 C446.899 422.025, 450.032 418.919, 453.845 418.292 M452.878 418.152 C454.021 422.037, 452.616 424.83, 454.145 427.565" stroke="rgb(211, 211, 211)" stroke-width="1" fill="none"></path></g><g class="text-container" transform="matrix(1 0 0 1 50 10)"><text style="font-size: 16px; font-weight: 400;font-style: normal;font-weight: 400;font-size: 16px;font-family: Comic Sans MS, cursive;" dy="1em" class="messageText" alignment-baseline="middle" dominant-baseline="middle" text-anchor="middle" y="428" x="392" stroke="none" stroke-width="1px" fill="rgb(211, 211, 211)">"Scrambler" processes inputs</text></g><g><path d="M442 471 C502.288 459.218, 502.214 499.129, 442 491" stroke="rgb(211, 211, 211)" stroke-width="1.5" fill="none"></path></g><g><path d="M436.68 483.484 C436.68 483.484, 436.68 483.484, 436.68 483.484 M436.68 483.484 C436.68 483.484, 436.68 483.484, 436.68 483.484 M437.377 484.078 C438.03 483.67, 438.529 483.187, 438.885 482.635 M437.389 484.188 C437.935 483.539, 438.346 482.974, 438.726 482.67 M438.024 484.687 C438.921 483.662, 439.569 482.923, 440.299 482.378 M438.068 484.807 C438.882 484.123, 439.38 483.217, 440.034 482.553 M438.081 486.4 C439.406 484.312, 441.237 483.408, 441.567 482.468 M438.524 486.167 C439.064 485.516, 439.752 484.762, 441.575 482.361 M438.576 487.002 C440.921 485.302, 442.662 483.571, 443.272 481.686 M439.264 486.56 C440.365 485.423, 441.219 484.439, 443.066 481.929 M439.848 488.897 C440.921 486.121, 444.027 483.387, 444.645 481.904 M438.923 488.563 C440.588 486.224, 442.149 484.86, 444.008 481.843 M439.833 488.398 C440.638 486.313, 443.422 485.35, 445.169 482.459 M439.682 488.625 C441.292 487.016, 442.902 485.35, 446.106 481.807 M439.737 490.089 C441.987 487.308, 443.7 484.793, 448.133 481.171 M440.079 490.275 C442.667 486.853, 444.494 484.459, 446.926 482.326 M441.347 489.876 C442.777 488.19, 444.897 485.924, 447.491 483.209 M441.354 490.874 C443.756 488.137, 446.234 485.262, 448.095 482.636 M441.403 491.502 C443.089 489.746, 443.8 489.141, 445.641 486.179 M441.346 491.268 C442.874 489.883, 444.306 488.346, 446.11 485.964 M441.793 493.293 C442.583 491.738, 443.34 491.195, 444.075 489.666 M441.931 493.081 C442.543 492.196, 443.222 491.169, 444.295 489.952" stroke="rgb(211, 211, 211)" stroke-width="0.576" fill="none"></path><path d="M447.961 481.814 C446.294 485.751, 442.627 489.765, 443.031 493.617 M442.642 494.172 C439.765 488.729, 439.405 486.648, 437.868 484.031 M436.246 483.693 C439.089 483.417, 442.898 482.621, 447.495 481.564" stroke="rgb(211, 211, 211)" stroke-width="1" fill="none"></path></g><g class="text-container" transform="matrix(1 0 0 1 50 10)"><text style="font-size: 16px; font-weight: 400;font-style: normal;font-weight: 400;font-size: 16px;font-family: Comic Sans MS, cursive;" dy="1em" class="messageText" alignment-baseline="middle" dominant-baseline="middle" text-anchor="middle" y="506" x="561" stroke="none" stroke-width="1px" fill="rgb(211, 211, 211)">Suggest 2 best options per candidate</text></g><g><path d="M441.036 550.256 C527.408 549.269, 613.009 548.817, 780.317 548.626" stroke="rgb(211, 211, 211)" stroke-width="1.5" fill="none"></path></g><g><path d="M770.401 543.663 C770.401 543.663, 770.401 543.663, 770.401 543.663 M770.401 543.663 C770.401 543.663, 770.401 543.663, 770.401 543.663 M770.488 546.523 C771.114 546.085, 771.376 545.354, 771.878 544.906 M770.567 546.578 C770.906 546.056, 771.044 545.909, 771.876 545.061 M770.333 549.741 C772.006 547.714, 772.865 547.11, 773.598 545.884 M770.896 549.13 C771.32 548.616, 772.333 547.828, 774.123 545.564 M770.526 552.345 C772.123 550.556, 773.039 549.634, 774.88 547.014 M771.055 552.375 C772.023 550.921, 773.395 549.632, 775.503 546.729 M771.411 554.863 C773.54 551.834, 776.982 548.501, 777.053 546.683 M771.911 554.594 C773.458 552.066, 774.471 550.774, 778.095 547.214 M776.632 551.916 C777.523 550.568, 778.008 550.505, 780.035 547.704 M776.709 552.038 C777.552 550.657, 778.699 548.998, 779.768 548.017" stroke="rgb(211, 211, 211)" stroke-width="1.454" fill="none"></path><path d="M770.768 542.978 C774.89 545.076, 779.467 546.987, 782.099 548.691 M781.926 549.756 C779.036 549.353, 777.329 550.673, 770.979 554.476 M770.971 553.988 C770.477 550.376, 769.396 547.031, 770.914 544.643" stroke="rgb(211, 211, 211)" stroke-width="1" fill="none"></path></g><g class="text-container" transform="matrix(1 0 0 1 50 10)"><text style="font-size: 16px; font-weight: 400;font-style: normal;font-weight: 400;font-size: 16px;font-family: Comic Sans MS, cursive;" dy="1em" class="messageText" alignment-baseline="middle" dominant-baseline="middle" text-anchor="middle" y="554" x="734" stroke="none" stroke-width="1px" fill="rgb(211, 211, 211)">Decide final assignments</text></g><g><path d="M784 597 C843.86 588.556, 844.091 627.404, 784 617 M784 597 C844.315 588.893, 843.892 628.476, 784 617" stroke="rgb(211, 211, 211)" stroke-width="1.5" fill="none"></path></g><g><path d="M779.121 608.98 C779.121 608.98, 779.121 608.98, 779.121 608.98 M779.121 608.98 C779.121 608.98, 779.121 608.98, 779.121 608.98 M779.101 610.487 C779.557 609.932, 780.198 609.539, 780.516 609.112 M779.052 610.405 C779.553 610.033, 780.041 609.585, 780.61 608.958 M780.016 610.838 C780.167 610.732, 780.618 610.214, 781.931 609.211 M779.719 611.238 C780.797 610.248, 781.477 609.419, 781.898 609.017 M780.4 611.391 C781.258 610.965, 782.641 609.821, 784.339 608.401 M780.359 611.718 C781.503 610.673, 782.47 609.742, 784.292 608.216 M781.026 612.874 C782.872 611.621, 783.245 609.625, 785.27 608.709 M781.264 612.594 C782.221 611.433, 783.668 610.638, 785.762 608.296 M781.033 614.292 C782.026 612.188, 784.036 611.344, 787.192 607.926 M781.409 613.988 C782.887 612.04, 784.804 609.899, 787.141 608.141 M781.364 615.163 C784.341 612.26, 786.549 610.191, 788.706 607.409 M782.136 614.737 C783.686 612.47, 785.767 610.279, 788.388 608.348 M782.632 615.202 C783.848 612.996, 785.756 611.129, 790.636 607.972 M782.449 615.37 C785.42 612.621, 788.476 610.005, 790.193 608.002 M782.605 617.247 C784.718 615.413, 786.397 613.348, 788.575 610.346 M782.268 617.136 C784.511 614.473, 786.603 613.07, 788.521 610.949 M783.092 617.439 C784.538 616.184, 786.472 614.478, 787.354 614.224 M783.534 617.477 C784.455 616.372, 785.584 615.162, 786.845 614.012 M784.217 617.962 C784.959 617.553, 785.562 616.479, 786.109 615.884 M784.106 618.204 C784.617 617.79, 785.231 617.014, 786.139 616.052" stroke="rgb(211, 211, 211)" stroke-width="1.685" fill="none"></path><path d="M787.902 609.303 C788.446 609.551, 786.668 613.143, 783.065 619.495 M784.665 618.396 C783.477 615.729, 780.933 614.388, 779.474 609.973 M778.191 610.002 C781.05 609.359, 783.157 609.169, 788.971 607.291" stroke="rgb(211, 211, 211)" stroke-width="1" fill="none"></path></g></svg>